<?xml version="1.0"?>
<svg version="1.1" xmlns="http://www.w3.org/2000/svg" width="400px" height="200px" style=""><path fill="#88aadd" d="M108.752,149.44c0,1.728-0.672,2.4-2.304,2.4l-7.584,0c-1.728,0-2.496-0.672-2.496-2.4l0-26.784l-27.264,0l0,26.784c0,1.728-0.768,2.4-2.4,2.4l-7.488,0c-1.728,0-2.592-0.672-2.592-2.4l0-61.728c0-1.632,1.056-2.304,2.592-2.304l7.488,0c1.536,0,2.4,0.576,2.4,2.304l0,25.056l27.264,0l0-25.056c0-1.632,0.96-2.304,2.496-2.304l7.584,0c1.536,0,2.304,0.576,2.304,2.304l0,61.728z M169.184,149.152c0,2.016-0.576,2.688-2.496,2.688l-6.144,0c-1.248,0-2.208-0.672-2.304-1.92l-0.096-2.4c-4.416,3.552-9.696,5.472-15.264,5.472c-10.752,0-15.168-6.816-15.168-17.184l0-28.32c0-1.632,0.96-2.208,2.496-2.208l6.72,0c1.536,0,2.4,0.48,2.4,2.208l0,26.304c0,5.28,1.344,8.928,7.104,8.928c3.648,0,8.256-2.016,11.136-4.608l0-30.624c0-1.632,0.864-2.208,2.4-2.208l6.816,0c1.536,0,2.4,0.48,2.4,2.208l0,41.664z M228.656,149.344c0,1.632-0.576,2.496-2.304,2.496l-6.912,0c-1.728,0-2.304-0.864-2.304-2.496l0-26.112c0-5.28-1.44-9.024-7.296-9.024c-3.744,0-8.352,2.016-11.328,4.608l0,30.624c0,1.632-0.672,2.4-2.304,2.4l-7.008,0c-1.44,0-2.304-0.768-2.304-2.304l0-41.856c0-1.536,0.672-2.4,2.4-2.4l6.24,0c1.344,0,2.208,0.384,2.304,1.824l0.096,2.496c4.416-3.552,9.984-5.568,15.552-5.568c10.752,0,15.168,6.72,15.168,17.184l0,28.128z M275.456,148.96c0,0.96-0.48,1.44-1.44,1.824c-2.976,1.248-6.912,2.208-10.752,2.208c-4.896,0-9.12-1.248-11.52-4.032c-2.976-3.36-3.072-7.296-3.072-14.304l0-21.408l-4.512,0c-1.824,0-2.112-0.384-2.112-2.4l0-3.648c0-1.152,0.576-1.92,1.728-1.92l4.896,0l0-10.464c0-1.632,0.864-2.112,2.4-2.304l6.912-0.864l0.48,0c1.248,0,1.824,0.672,1.824,2.112l0,11.52l10.848,0c1.152,0,1.824,0.384,1.824,1.632l0,4.512c0,1.152-0.768,1.824-1.92,1.824l-10.752,0l0,21.984c0,2.88,0.192,4.992,1.248,6.528c0.864,1.248,2.208,2.016,4.512,2.016c2.4,0,4.416-0.576,6.144-1.152c0.384-0.096,0.672-0.192,0.96-0.192c0.672,0,1.056,0.384,1.248,1.152l0.96,4.8c0.096,0.288,0.096,0.384,0.096,0.576z"/><path fill="#" d=""/></svg>
